<?xml version="1.0" standalone="no"?>
<!DOCTYPE svg PUBLIC "-//W3C//DTD SVG 20010904//EN"
 "http://www.w3.org/TR/2001/REC-SVG-20010904/DTD/svg10.dtd">
<svg version="1.0" xmlns="http://www.w3.org/2000/svg"
 width="1024.000000pt" height="1024.000000pt" viewBox="0 0 1024.000000 1024.000000"
 preserveAspectRatio="xMidYMid meet">

<g transform="translate(0.000000,1024.000000) scale(0.100000,-0.100000)"
fill="#000000" stroke="none">
<path d="M6233 8880 c-17 -10 -37 -28 -42 -39 -7 -13 -11 -121 -11 -301 l0
-282 34 -34 c28 -28 42 -34 75 -34 57 0 100 24 117 65 22 54 20 534 -2 581
-30 62 -109 82 -171 44z"/>
<path d="M5045 8573 c-33 -8 -74 -54 -81 -91 -8 -44 -2 -57 153 -315 131 -218
156 -247 218 -247 68 0 134 76 120 140 -3 15 -25 59 -48 96 -24 38 -87 142
-141 231 -113 186 -136 206 -221 186z"/>
<path d="M7475 8562 c-19 -12 -66 -76 -130 -178 -169 -270 -195 -316 -195
-346 0 -87 99 -145 179 -103 32 16 51 44 210 301 97 159 111 187 111 226 0 52
-21 85 -66 104 -45 19 -73 18 -109 -4z"/>
<path d="M6035 8005 c-340 -60 -659 -244 -892 -515 -41 -47 -78 -87 -84 -88
-5 -2 -35 8 -67 23 -83 39 -213 81 -332 106 -150 32 -420 32 -567 1 -321 -69
-601 -225 -823 -459 -249 -261 -391 -594 -407 -955 -7 -139 -5 -138 -79 -138
-56 0 -198 -42 -283 -83 -159 -77 -314 -214 -416 -368 -243 -365 -224 -880 46
-1238 182 -242 441 -387 734 -411 58 -4 1123 -7 2368 -6 l2262 1 80 23 c297
84 506 296 581 590 58 229 9 481 -132 673 -52 72 -175 183 -253 229 -67 40
-229 100 -271 100 -15 0 -6 17 49 85 300 374 383 920 214 1409 -177 510 -612
891 -1150 1007 -127 28 -455 36 -578 14z m556 -239 c472 -109 863 -481 983
-936 86 -322 55 -653 -85 -933 -22 -43 -56 -101 -76 -130 -58 -82 -145 -179
-153 -170 -4 4 -15 33 -25 63 -28 86 -88 198 -152 285 -191 256 -482 417 -809
448 -104 9 -139 8 -235 -6 -63 -9 -126 -20 -140 -23 -24 -5 -26 -3 -38 53 -62
276 -261 588 -500 783 -50 41 -91 80 -91 88 0 20 197 212 270 264 159 112 313
181 485 217 145 30 146 30 310 26 113 -3 176 -10 256 -29z m-1941 -485 c398
-90 706 -323 890 -672 58 -111 112 -269 135 -394 20 -109 25 -119 66 -135 29
-12 40 -11 123 18 128 44 195 55 321 55 185 0 344 -51 506 -161 200 -136 331
-342 374 -588 26 -148 27 -149 209 -146 159 3 217 -8 331 -62 200 -95 321
-273 332 -487 7 -115 -6 -176 -53 -275 -67 -138 -188 -242 -339 -290 l-80 -26
-2314 1 c-2568 1 -2363 -5 -2519 67 -291 133 -476 428 -475 759 0 137 26 245
87 370 101 205 281 356 486 410 36 10 122 20 193 24 179 9 172 -1 173 234 2
204 16 302 65 449 152 452 544 787 1012 863 122 19 359 13 477 -14z"/>
<path d="M8117 7546 c-230 -118 -281 -152 -293 -200 -10 -41 12 -102 46 -126
60 -42 86 -35 341 99 129 68 240 128 248 134 50 42 45 135 -10 181 -55 47 -83
39 -332 -88z"/>
<path d="M8083 6471 c-42 -26 -53 -49 -53 -109 0 -56 22 -92 68 -111 21 -9
105 -11 295 -9 265 3 265 3 291 27 52 49 52 139 1 190 l-25 26 -273 3 c-256 2
-274 1 -304 -17z"/>
<path d="M1769 3423 c-2 -12 -5 1 113 -423 61 -217 121 -431 133 -475 l22 -80
123 0 123 0 83 290 c45 160 85 303 88 319 3 16 8 27 11 24 3 -2 43 -139 90
-304 47 -164 88 -307 91 -316 5 -16 20 -18 127 -18 l122 0 74 273 c41 149 102
370 136 490 34 119 59 219 57 222 -3 3 -54 5 -112 5 -74 0 -111 -4 -117 -12
-5 -7 -43 -152 -83 -323 -40 -170 -76 -318 -80 -328 -6 -19 -52 127 -156 496
l-48 167 -103 0 c-74 0 -105 -4 -107 -12 -32 -103 -176 -638 -176 -651 0 -63
-27 25 -96 321 l-80 337 -117 3 c-64 1 -118 -1 -118 -5z"/>
<path d="M3280 2935 l0 -495 325 0 325 0 0 95 0 95 -215 0 -215 0 0 105 0 105
195 0 195 0 0 95 0 95 -195 0 -195 0 0 100 0 100 215 0 215 0 0 100 0 100
-325 0 -325 0 0 -495z"/>
<path d="M4305 3223 c-43 -115 -120 -320 -171 -458 -50 -137 -99 -267 -108
-288 l-17 -38 118 3 118 3 31 90 31 90 193 0 194 0 30 -92 30 -93 119 0 c109
0 119 1 112 18 -18 46 -296 778 -326 857 -18 50 -37 96 -42 103 -7 8 -43 12
-122 12 l-112 0 -78 -207z m258 -230 c31 -89 57 -164 57 -167 0 -3 -54 -6
-120 -6 -66 0 -120 3 -120 8 0 22 114 342 120 335 4 -4 32 -81 63 -170z"/>
<path d="M4909 3426 c-2 -2 -3 -47 -1 -100 l3 -96 140 0 139 0 0 -395 0 -395
110 0 110 0 0 395 0 395 145 0 145 0 0 100 0 100 -393 0 c-217 0 -396 -2 -398
-4z"/>
<path d="M5820 2935 l0 -495 105 0 105 0 0 195 0 195 210 0 210 0 0 -195 0
-195 110 0 110 0 -2 493 -3 492 -107 3 -108 3 0 -201 0 -200 -210 0 -210 0 0
200 0 200 -105 0 -105 0 0 -495z"/>
<path d="M6857 3423 c-3 -5 -4 -226 -3 -493 l1 -485 323 -3 322 -2 0 95 0 95
-215 0 -215 0 0 105 0 105 195 0 195 0 0 95 0 95 -195 0 -195 0 0 100 0 100
214 0 215 0 3 96 c2 53 1 98 -1 100 -8 7 -640 4 -644 -3z"/>
<path d="M7670 2935 l0 -495 110 0 110 0 0 164 0 164 66 4 66 3 55 -105 c31
-58 71 -133 90 -167 l34 -63 123 0 124 0 -101 182 -101 181 24 16 c55 36 91
75 117 129 24 50 28 68 28 147 -1 70 -5 100 -22 136 -47 105 -141 170 -270
189 -37 5 -155 10 -260 10 l-193 0 0 -495z m463 272 c40 -26 60 -64 60 -113 0
-94 -60 -134 -205 -134 l-98 0 0 136 0 136 108 -3 c82 -3 115 -8 135 -22z"/>
<path d="M4151 2128 c-5 -13 -47 -126 -94 -253 -159 -429 -245 -660 -252 -677
-7 -17 2 -18 109 -18 64 0 116 1 116 3 0 1 15 45 34 97 l33 95 186 3 186 2 32
-100 33 -100 113 0 c84 0 113 3 113 13 -1 6 -81 223 -179 482 l-178 470 -122
3 c-118 3 -121 2 -130 -20z m144 -245 c3 -16 26 -82 50 -148 24 -66 47 -133
50 -148 l7 -27 -121 0 c-67 0 -121 3 -121 7 0 16 116 343 121 343 4 0 10 -12
14 -27z"/>
<path d="M4860 1665 l0 -485 110 0 110 0 0 164 0 163 123 6 c140 7 183 17 250
59 85 54 131 144 130 258 0 118 -42 207 -123 261 -77 52 -121 59 -372 59
l-228 0 0 -485z m422 296 c14 -5 37 -24 51 -41 22 -26 27 -42 27 -85 0 -46 -5
-60 -31 -89 -35 -40 -102 -59 -191 -54 l-53 3 -3 129 c-1 72 0 136 3 144 4 12
21 14 89 9 46 -4 95 -11 108 -16z"/>
<path d="M5700 1665 l0 -485 105 0 105 0 0 164 0 163 133 5 c118 4 139 7 195
33 143 64 210 212 168 373 -20 79 -56 134 -114 172 -80 53 -122 60 -369 60
l-223 0 0 -485z m426 290 c45 -19 79 -89 69 -144 -16 -86 -73 -120 -202 -121
l-83 0 0 138 c0 76 3 142 8 146 11 12 168 -2 208 -19z"/>
</g>
</svg>
